<?xml version="1.0" encoding="UTF-8"?>
<svg id="Layer_1" xmlns="http://www.w3.org/2000/svg" version="1.1" viewBox="0 0 305 303">
  <!-- Generator: Adobe Illustrator 29.8.2, SVG Export Plug-In . SVG Version: 2.1.1 Build 3)  -->
  <defs>
    <style>
      .st0 {
        fill: #258bcb;
      }
    </style>
  </defs>
  <path class="st0" d="M-403.71,93.28c1.46-14.26,6.58-32.02,13.8-44.51.26-.46.97-2.1,1.58-1.83,17.64,19.06,28.1,43.63,44.28,63.73,6.32,7.86,17.52,20.18,28.91,16.1s25.27-29.75,32.91-40.01c5.33-7.15,14.18-18.62,24.5-14.83s21.69,25.09,28.13,34.06c5.47,7.6,13.97,19.73,24.89,15.55,15.87-6.08,32.49-45.02,45.74-58.47.45-.46.77-.99,1.52-.84,18.26,47.32,5.56,101.91-32.07,136.29-21.24,19.4-49.37,31.66-78.48,33.37-4.32-.23-13.45-.23-17.78,0-60.89-3.67-111.6-51.5-117.93-110.98-.03-.28.03-.57,0-.85,4.15,5.38,7.92,11.03,12.15,16.36,6.8,8.56,14.89,17.7,22.96,25.11,2.67,2.45,6.49,4.97,8.91,7.42,1.89,1.91,3.68,4.79,5.61,6.83,24.8,26.22,60.43,38.29,96.56,31.75,31.85-5.76,60.06-26.8,74.05-55.37l-9.84,4.8c-21.57,8.84-31.3-13.3-41.57-27.07-9.24-12.39-19.73-26.02-34.21-9.83-14.71,16.44-26.82,57.68-54.62,55.28-22.49-1.94-52.15-35.39-64.74-52.59-5.53-7.55-10.48-15.5-15.25-23.52.06-1.76-.23-3.75,0-5.95Z"/>
  <path class="st0" d="M-266.4-20.48c43.9,3.56,84.12,30.25,103.19,69.11-.02.88-5.04,5.23-6.06,6.38-3.85,4.33-6.8,9.32-10.41,13.81-11.77-31.53-39.92-56.27-73.36-63.92-42.09-9.63-84.5,6.19-109.54,40.4-1.75,2.39-3.37,4.93-4.82,7.52-.8.99-.92-.27-1.33-.78-3.44-4.32-6.48-8.85-10.19-12.99-1.01-1.13-4.28-3.52-4.14-4.86.13-1.2,7.35-9.96,8.7-11.5,21.4-24.53,52.9-40.5,85.84-43.17,1.12-.09,3.4-.43,4.12-.43h13.87c.72,0,3,.33,4.12.43Z"/>
</svg>